# xmcd
#
# Track frame offsets:
#	150
#	10375
#	35125
#	50975
#	64725
#	77650
#	101063
#	123663
#	138475
#	159438
#	174063
#	190938
#
# Disc length: 2767 seconds
#
# Revision: 0
# Processed by: cddbd v1.4PL0 Copyright (c) Steve Scherf et al.
# Submitted via: dBpowerAMP V4.0
#
DISCID=a60acd0c
DTITLE=Astor Piazzolla-Jorge Oraison - Tangos y Milongas
DYEAR=1900
DGENRE=classic guitar
TTITLE0=La muerte del angel(tango)
TTITLE1=Milonga del angel (milonga)
TTITLE2=retrato de A.Gobbi
TTITLE3=contrabajeando
TTITLE4=J.Chiclana
TTITLE5=campero
TTITLE6=romantico
TTITLE7=acentuado
TTITLE8=triston
TTITLE9=compadre
TTITLE10=Milonga en Ay menor
TTITLE11=otoño porteño
EXTD=Piazzolla-Oraison-Guitar works
EXTT0=
EXTT1=
EXTT2=
EXTT3=
EXTT4=
EXTT5=
EXTT6=
EXTT7=
EXTT8=
EXTT9=
EXTT10=
EXTT11=
PLAYORDER=
